# xmcd
#
# Track frame offsets:
# 150
# 17600
# 46537
# 61492
# 77632
# 91152
# 121065
# 147065
# 178952
# 199580
#
# Disc length: 2968 seconds
#
#
# Revision: 0
# Processed by: cddbd v1.4PL0 Copyright (c) Steve Scherf et al.
# Submitted via: HACP 1.13
#
DISCID=750b960a
DTITLE=Robin Trower - Too Rolling Stoned
DYEAR=1975
DGENRE=Blues
TTITLE0=Day Of Eagle
TTITLE1=Bridge Of Sighs
TTITLE2=Gonna Be More Suspicious
TTITLE3=Fine Day
TTITLE4=Lady Love
TTITLE5=Day Dream
TTITLE6=Too Rolling Stoned
TTITLE7=I Can't Wait Much Longer
TTITLE8=Alethea
TTITLE9=A Little Bit Of Sympathie
EXTD=
EXTT0=
EXTT1=
EXTT2=
EXTT3=
EXTT4=
EXTT5=
EXTT6=
EXTT7=
EXTT8=
EXTT9=
PLAYORDER=
